PathFileType	4	(X/Y/Z)	49_2_rein_39_p1_0-257_filt_butterworth.trc
DataRate	CameraRate	NumFrames	NumMarkers	Units	OrigDataRate	OrigDataStartFrame	OrigNumFrames
59.0	59.0	4	27	m	59.0	0	257
Frame#	Time	RHip			RKnee			RAnkle			RBigToe			RSmallToe			RHeel			LHip			LKnee			LAnkle			LBigToe			LSmallToe			LHeel			Neck			Head			Nose			RShoulder			RElbow			RWrist			RThumb			RIndex			RPinky			LShoulder			LElbow			LWrist			LThumb			LIndex			LPinky			
		X1	Y1	Z1	X2	Y2	Z2	X3	Y3	Z3	X4	Y4	Z4	X5	Y5	Z5	X6	Y6	Z6	X7	Y7	Z7	X8	Y8	Z8	X9	Y9	Z9	X10	Y10	Z10	X11	Y11	Z11	X12	Y12	Z12	X13	Y13	Z13	X14	Y14	Z14	X15	Y15	Z15	X16	Y16	Z16	X17	Y17	Z17	X18	Y18	Z18	X19	Y19	Z19	X20	Y20	Z20	X21	Y21	Z21	X22	Y22	Z22	X23	Y23	Z23	X24	Y24	Z24	X25	Y25	Z25	X26	Y26	Z26	X27	Y27	Z27	
0	0.0	0.3838832818621977	0.621693100151417	0.7336354162388748	0.37007462181380946	0.8460156712879114	1.1842446153779764	0.3351825844553414	1.0468798736088236	1.5937669768488998	0.30178741206548193	0.8344518076537751	1.6674251644779823	0.3714059600735649	0.8449009985532983	1.6635807521953536	0.32414072900684154	1.1523311560032599	1.6326427943099708	0.1654863700690168	0.6714103961870769	0.7307494303278407	0.1841632609832093	0.8308180813551838	1.1766648616284692	0.18349476684526567	1.0322369317248106	1.5746375985376182	0.15644816223506786	0.8205801687352343	1.6491009917255597	0.11221991595501365	0.8993947959608404	1.6519130012772485	0.20030226778799473	1.1549621359919424	1.6447515488302775	0.284192969372772	0.43851529401293726	0.25020985150213176	0.2815327701143929	0.32202929548692083	0.03783951176063961	0.27643251436178284	0.3077790217535806	0.1826451847736607	0.44793175080652653	0.46723512801633293	0.3115626614291564	0.48103015180768094	0.5072673530064633	0.5706103220595571	0.3396414288129379	0.461276049127548	0.7753006805758761	0.228981104404298	0.4740340656607705	0.8295030672228336	0.22914592408076093	0.4968152471193948	0.8631174430572581	0.25731189023014744	0.4989867066851826	0.8735327547146805	0.11977244032380799	0.5109152363061693	0.2869986306413874	0.07809841390654679	0.5236317186041831	0.5301979116809925	0.18067829526216703	0.48795650939599655	0.7418537830453188	0.24088386204124912	0.48152982332969063	0.8164733406977993	0.2507019701828872	0.47796695544887646	0.8503226831229052	0.23754431406323057	0.4950504444560444	0.8499024902746786
1	0.0169491525423728	0.3841438521115243	0.61992793865997	0.7338093815177221	0.3699424693704416	0.8461971979022493	1.1844224766134004	0.33284755429121726	1.0593470703831924	1.5960680699186094	0.2996922440698882	0.8438870522898196	1.668857360586253	0.36915137104322804	0.8553227238689339	1.6657888840206412	0.32398839578019	1.1525744222861125	1.6326274139101724	0.16556130001176259	0.6709634561797738	0.7307969287757892	0.184973025671186	0.8266981716515271	1.1771615035296787	0.18561432581133483	1.0422358673177878	1.5791861277662824	0.15808001738714567	0.8283913845632962	1.6507472777540402	0.11288677086295915	0.8987106434580804	1.649539819103147	0.20109657554464866	1.15846733169352	1.6445981552040037	0.2842122538199687	0.4389040645158711	0.2521460170206943	0.2815274684289968	0.3220290429804589	0.03788002646831713	0.2764893268656868	0.30763479283828565	0.18181147873851916	0.44516035433905576	0.4624733374141907	0.3151150384874477	0.4810271673692883	0.5073681974055251	0.5732058024508981	0.3396918304135667	0.46154131998106185	0.775293115106877	0.22884959681637843	0.4737420115614084	0.8300181699332478	0.2288573062113568	0.4974118826144077	0.8650231914596453	0.2587545670645535	0.4940280191875738	0.8728667400890361	0.12096180784652552	0.510754763218983	0.2850626608600836	0.07661851169601093	0.5175582009067086	0.5325783460993792	0.1829217675794538	0.48029299133445535	0.7434733329924971	0.23863676179500562	0.4836975160336665	0.815319090050746	0.24825491880467848	0.48190104149723556	0.8524526747285065	0.23746814971658092	0.49488224042642465	0.8487138293595671
2	0.0338983050847457	0.38529033666210427	0.6163213581864048	0.7340984743573455	0.369852008120631	0.8462852415953922	1.1845298340043948	0.331463301539117	1.0668475791757697	1.5974830598166516	0.29858455356824765	0.8495916695601827	1.6685831778817422	0.36789753747605497	0.8616481911208129	1.6670569219123517	0.3238757816122517	1.1527625864447508	1.6326299931702697	0.16558731922440104	0.6708650343980479	0.7308043482495284	0.18496193230992936	0.8264050978878393	1.1775127211001515	0.18701576956614493	1.0480930030630393	1.5814857292662945	0.1584608231554	0.8303873002650015	1.6511667863840294	0.11323818186383101	0.8983392672130767	1.6481755917751022	0.20188220913359495	1.1617894278741328	1.6452388825123432	0.28421667618000607	0.43913768380271223	0.25330645395110524	0.2815252502493671	0.32203067046482575	0.03791504389430342	0.27653382756877815	0.307553902271654	0.18145338352505405	0.44332262747648443	0.4606985613413851	0.31698949302139207	0.48102135558952736	0.5074000143448386	0.5747252431226137	0.3397674875791265	0.46182267003891037	0.7752734826364079	0.22877637248674343	0.4735583149460159	0.829931818939651	0.2286073762317431	0.497609534183193	0.8664236007468147	0.26035765880565437	0.4881523549453194	0.8731961213815691	0.12153440537224042	0.5106892728593413	0.2839250655540086	0.07646484767206047	0.5144126024590457	0.5343813552624496	0.1842057740554558	0.475745421539418	0.74493891457806	0.23835537291205391	0.48381564213089545	0.8148961245685556	0.24784549137266618	0.48281440915744334	0.8539453805470667	0.23742197082007635	0.4946714693736721	0.8478685214531986
3	0.0508474576271186	0.3874225428290938	0.6115330465955261	0.7344514929264889	0.36979761168139347	0.8461542134278562	1.1845041660469542	0.33109502159785614	1.0690190228242424	1.5979466449272324	0.2983902136587534	0.8514433615236299	1.667256416025654	0.3676623301967129	0.8635356063849686	1.6673433683960164	0.32399962393182885	1.1528792953396625	1.6326473484215343	0.1655328679554851	0.6711132491553043	0.7307939811831393	0.1844177053018599	0.8287224248881153	1.1777510342672814	0.18751247390364661	1.049694483806918	1.5816602957599102	0.15767683138340452	0.826891491601915	1.6504261051819935	0.11327566919871668	0.8982820448672593	1.6478694422582902	0.20274840498672092	1.165265377478491	1.6464927804902725	0.2842063993646303	0.4392092727627024	0.2536437259831143	0.2815237497284141	0.3220331383488632	0.03793942954669223	0.276546612574133	0.30756238069460745	0.18172099382630996	0.4427395542174656	0.46066177568933353	0.31738677298007084	0.4810145291246433	0.5073649161307816	0.5750776319229547	0.33975199089521574	0.46182232290653036	0.7752447947593475	0.22875730720577775	0.4734958816151581	0.8295438434772858	0.22868886625040544	0.4965601722936004	0.8676313931598284	0.2620340916323136	0.48154297887647424	0.8743608210411792	0.12147211861457746	0.5106537899712098	0.28363300617481396	0.07746537412311975	0.5139085971944792	0.5350090012840911	0.18450438309130782	0.4744904825307448	0.7459010861558254	0.239428845103119	0.4823313710254581	0.8150249495591705	0.2489715004780028	0.48125169291054076	0.8549544112631864	0.23737505838142636	0.4944412860135105	0.8474460733084287
